<?xml version="1.0" encoding="utf-8"?>
<!-- Generator: Adobe Illustrator 17.0.0, SVG Export Plug-In . SVG Version: 6.00 Build 0)  -->
<!DOCTYPE svg PUBLIC "-//W3C//DTD SVG 1.1//EN" "http://www.w3.org/Graphics/SVG/1.1/DTD/svg11.dtd">
<svg version="1.1" id="Layer_1" xmlns="http://www.w3.org/2000/svg" xmlns:xlink="http://www.w3.org/1999/xlink" x="0px" y="0px"
	fill="#FFFFFF" width="1000px" height="1000px" viewBox="0 0 2500 500" xml:space="preserve">
<g>
	<path d="M1173.694,188.719l-61.585-23.863c-2.336,5.865-7.341,10.572-13.932,12.229c-10.899,2.739-21.954-3.875-24.694-14.773
		c-1.052-4.188-0.713-8.394,0.709-12.148l-123.826-47.98l63.639,253.193c2.027,8.063-2.867,16.241-10.929,18.268
		c-8.062,2.026-16.241-2.866-18.268-10.929l-62.24-247.627l-12.057-47.971l-5.014,17.68l-91.333-35.39
		c-43.191-16.736-87.282,22.224-75.991,67.147l108.597,432.06c11.291,44.923,68.564,58.405,98.709,23.236l124.818-145.617
		l-64.237-255.573c-2.027-8.063,2.867-16.241,10.93-18.268c8.062-2.026,16.241,2.866,18.268,10.929l41.954,166.918l32.343,128.679
		l-0.711-77.655l87.569-102.162C1222.04,249.203,1210.414,202.947,1173.694,188.719z M877.27,419.51
		c2.027,8.063-2.867,16.241-10.93,18.268c-8.062,2.026-16.241-2.866-18.268-10.929l-74.297-295.597
		c-2.027-8.063,2.867-16.241,10.929-18.268c8.062-2.026,16.241,2.866,18.268,10.929L877.27,419.51z M881.795,256.947
		c-2.027-8.063,2.867-16.242,10.929-18.268c8.062-2.026,16.241,2.866,18.268,10.93l28.697,114.172
		c2.027,8.063-2.867,16.242-10.929,18.268c-8.062,2.026-16.241-2.866-18.268-10.929L881.795,256.947z M942.299,435.911
		c-10.898,2.739-21.954-3.875-24.693-14.773c-2.739-10.898,3.875-21.954,14.773-24.694c10.898-2.739,21.954,3.875,24.693,14.774
		C959.812,422.117,953.197,433.172,942.299,435.911z M1148.76,316.581c2.027,8.063-2.867,16.241-10.93,18.268
		c-8.062,2.026-16.241-2.866-18.268-10.929l-28.696-114.169c-2.027-8.063,2.867-16.242,10.929-18.268
		c8.062-2.026,16.241,2.866,18.268,10.93L1148.76,316.581z"/>
</g>
</svg>
